<?xml version="1.0" standalone="no"?><!DOCTYPE svg PUBLIC "-//W3C//DTD SVG 1.1//EN" "http://www.w3.org/Graphics/SVG/1.1/DTD/svg11.dtd"><svg t="1526894059647" class="icon" style="" viewBox="0 0 1024 1024" version="1.1" xmlns="http://www.w3.org/2000/svg" p-id="1123" xmlns:xlink="http://www.w3.org/1999/xlink" width="200" height="200"><defs><style type="text/css"></style></defs><path d="M778.779 82.19l67.573 67.826-110.779 108.521-100.986-89.932-214.779 222.569-118.819-103.998-233.62 229.6 54.26 54.763 181.371-180.868 114.548 102.491 222.316-227.089 96.463 88.172 164.037-149.968 63.302 61.797 0.252-184.068z" p-id="1124" fill="#ffffff"></path><path d="M66.362 673.775h80.638v226.083h-80.638v-226.083z" p-id="1125" fill="#ffffff"></path><path d="M197.493 584.839h80.638v315.018h-80.638v-315.018z" p-id="1126" fill="#ffffff"></path><path d="M333.141 631.569h80.638v268.291h-80.638v-268.291z" p-id="1127" fill="#ffffff"></path><path d="M470.301 562.23h80.638v337.63h-80.638v-337.63z" p-id="1128" fill="#ffffff"></path><path d="M605.95 425.060h80.638v474.8h-80.638v-474.8z" p-id="1129" fill="#ffffff"></path><path d="M743.107 539.617h80.638v360.24h-80.638v-360.24z" p-id="1130" fill="#ffffff"></path><path d="M878.757 379.837h80.638v520.020h-80.638v-520.020z" p-id="1131" fill="#ffffff"></path></svg>