<?xml version="1.0" standalone="no"?><!DOCTYPE svg PUBLIC "-//W3C//DTD SVG 1.1//EN" "http://www.w3.org/Graphics/SVG/1.1/DTD/svg11.dtd"><svg t="1526792545855" class="icon" style="" viewBox="0 0 1024 1024" version="1.1" xmlns="http://www.w3.org/2000/svg" p-id="4431" xmlns:xlink="http://www.w3.org/1999/xlink" width="200" height="200"><defs><style type="text/css"></style></defs><path d="M398.222222 512H170.666667c-62.577778 0-113.777778-51.2-113.777778-113.777778V170.666667c0-62.577778 51.2-113.777778 113.777778-113.777778h227.555555c62.577778 0 113.777778 51.2 113.777778 113.777778v227.555555c0 62.577778-51.2 113.777778-113.777778 113.777778zM170.666667 170.666667v227.555555h227.555555V170.666667H170.666667zM796.444444 512c-28.444444 0-56.888889-11.377778-79.644444-34.133333l-113.777778-113.777778c-45.511111-45.511111-45.511111-113.777778 0-159.288889l113.777778-113.777778c45.511111-45.511111 113.777778-45.511111 159.288889 0l113.777778 113.777778c45.511111 45.511111 45.511111 113.777778 0 159.288889l-113.777778 113.777778c-22.755556 22.755556-51.2 34.133333-79.644445 34.133333z m0-341.333333l-113.777777 113.777777 113.777777 113.777778 113.777778-113.777778-113.777778-113.777777zM398.222222 1024H170.666667c-62.577778 0-113.777778-51.2-113.777778-113.777778v-227.555555c0-62.577778 51.2-113.777778 113.777778-113.777778h227.555555c62.577778 0 113.777778 51.2 113.777778 113.777778v227.555555c0 62.577778-51.2 113.777778-113.777778 113.777778z m-227.555555-341.333333v227.555555h227.555555v-227.555555H170.666667zM910.222222 1024h-227.555555c-62.577778 0-113.777778-51.2-113.777778-113.777778v-227.555555c0-62.577778 51.2-113.777778 113.777778-113.777778h227.555555c62.577778 0 113.777778 51.2 113.777778 113.777778v227.555555c0 62.577778-51.2 113.777778-113.777778 113.777778z m-227.555555-341.333333v227.555555h227.555555v-227.555555h-227.555555z" p-id="4432" fill="#ffffff"></path></svg>
